Coordinates
version=1
nRows=29
nColumns=24
inDegrees=yes

Units are S.I. units (second, meters, Newtons, ...)
Angles are in degrees.

endheader
time	pelvis_tilt	pelvis_list	pelvis_rotation	pelvis_tx	pelvis_ty	pelvis_tz	hip_flexion_r	hip_adduction_r	hip_rotation_r	knee_angle_r	ankle_angle_r	subtalar_angle_r	mtp_angle_r	hip_flexion_l	hip_adduction_l	hip_rotation_l	knee_angle_l	ankle_angle_l	subtalar_angle_l	mtp_angle_l	lumbar_extension	lumbar_bending	lumbar_rotation
      0.48300000	      0.18281092	      5.75831234	     -5.97760709	     -0.73895078	      1.00140131	      0.29067349	     21.54875394	     -3.29138171	      3.08404623	     -3.57016119	      3.58396137	     -2.84115202	      0.89334636	    -16.31118087	     11.20116383	      4.32093214	     -2.75203097	      5.11922537	    -10.71793223	      0.41615936	    -12.58037985	      2.57216831	     -6.12706517
      0.48716667	      0.13752509	      5.68125314	     -5.99002047	     -0.73316906	      1.00086218	      0.29103438	     21.50979841	     -3.14444554	      3.30831781	     -3.64989064	      3.43913987	     -2.52920020	      1.55293899	    -16.28550980	     11.12059266	      4.11164917	     -3.43194803	      5.36892363	    -10.25422685	      0.71256040	    -12.52260848	      2.68484715	     -6.02333099
      0.49133333	      0.12717191	      5.63804067	     -6.01995416	     -0.72743869	      1.00038823	      0.29141614	     21.45084575	     -3.02772680	      3.62992725	     -3.81851549	      3.28693203	     -2.38937706	      1.63094182	    -16.31251484	     11.09251971	      4.13005625	     -4.06012455	      5.35766763	    -10.34732444	      0.75476828	    -12.52005273	      2.72869004	     -6.01879569
      0.49550000	      0.00365917	      5.56075734	     -6.04015161	     -0.72164138	      0.99981694	      0.29182051	     21.50643805	     -2.86133001	      3.96454613	     -4.05567102	      2.99706033	     -2.28830224	      2.01744701	    -16.15503124	     11.00819492	      3.96463501	     -4.83232816	      5.56625996	     -9.97860517	      1.02155758	    -12.36600055	      2.83486035	     -5.88799272
      0.49966667	      0.01954475	      5.47795938	     -6.06050620	     -0.71584260	      0.99944524	      0.29223844	     21.40081588	     -2.70941351	      4.27811446	     -4.31503276	      2.62070214	     -2.39443959	      7.30511735	    -16.12568032	     10.92606337	      3.75362464	     -5.62820367	      5.52193611	     -9.72873433	      5.16756760	    -12.39355688	      2.92486857	     -5.86056675
      0.50383333	     -0.03532014	      5.38725141	     -6.07461129	     -0.71000846	      0.99902183	      0.29260293	     21.40937901	     -2.54500094	      4.53731575	     -4.73341154	      2.41781024	     -2.27308625	      7.34619523	    -15.99756835	     10.83761715	      3.61358910	     -6.48764908	      5.61749276	     -9.52355689	      5.21087750	    -12.32149033	      3.05170456	     -5.73698289
      0.50800000	     -0.04813957	      5.28442929	     -6.08955178	     -0.70416570	      0.99868602	      0.29301470	     21.35721657	     -2.36937151	      4.82606095	     -5.16409597	      2.13007421	     -2.30719324	      7.40596219	    -15.87734100	     10.73146672	      3.38770767	     -7.41504219	      5.68240727	     -9.18762076	      5.33873677	    -12.31530006	      3.16574947	     -5.64996355
      0.51216667	     -0.07595042	      5.16538422	     -6.10338603	     -0.69828653	      0.99835251	      0.29342862	     21.31969732	     -2.17531026	      5.10630105	     -5.63715983	      1.81553810	     -2.38363308	      7.47701340	    -15.71507583	     10.60665015	      3.15397504	     -8.39865756	      5.72146327	     -8.87499424	      5.54515741	    -12.28643951	      3.30293706	     -5.55200578
      0.51633333	     -0.08513984	      5.05274940	     -6.11447737	     -0.69239980	      0.99806583	      0.29383471	     21.27332048	     -1.99229955	      5.36616526	     -6.16447521	      1.50878011	     -2.48265185	      7.56039880	    -15.53874439	     10.48710919	      2.90306968	     -9.44400613	      5.72936503	     -8.55054904	      5.83481445	    -12.27745683	      3.43704288	     -5.45735190
      0.52050000	     -0.10506741	      4.93525734	     -6.11926964	     -0.68648818	      0.99779084	      0.29424160	     21.24038265	     -1.80402952	      5.61064093	     -6.72684762	      1.18495984	     -2.64891809	      7.65649580	    -15.31782581	     10.35555569	      2.61976654	    -10.55025387	      5.70102433	     -8.20594527	      6.23285469	    -12.24984200	      3.57960002	     -5.36013875
      0.52466667	     -0.11335215	      4.81379976	     -6.12456311	     -0.68056706	      0.99753697	      0.29464711	     21.20287133	     -1.61402667	      5.83393192	     -7.32853518	      0.88081743	     -2.83071805	      7.76609569	    -15.07429545	     10.21712316	      2.30695297	    -11.72253050	      5.63618847	     -7.85125207	      6.74990289	    -12.23974054	      3.72294777	     -5.25798431
      0.52883333	     -0.11037268	      4.68417314	     -6.12595813	     -0.67463150	      0.99732741	      0.29506642	     21.15285203	     -1.41750077	      6.04027544	     -7.95138014	      0.59087006	     -3.04922007	      7.88256866	    -14.81098548	     10.06326622	      1.97466655	    -12.95382536	      5.52279297	     -7.49579043	      7.37771068	    -12.24481193	      3.87043443	     -5.15485541
      0.53300000	     -0.05974520	      4.53076164	     -6.13617100	     -0.66866492	      0.99720337	      0.29548111	     21.04860826	     -1.20172556	      6.22641653	     -8.58716734	      0.26677146	     -3.35217157	      8.94683129	    -14.60084556	      9.89079174	      1.66603269	    -14.15444725	      5.17301820	     -7.36391461	     13.64844569	    -12.32030030	      4.05210355	     -5.07859863
      0.53716667	     -0.07579569	      4.41865387	     -6.11649865	     -0.66272174	      0.99698920	      0.29584105	     21.06216139	     -1.03317871	      6.32183339	     -9.32863336	      0.10064797	     -3.49898363	      8.96308326	    -14.24882881	      9.74191447	      1.33651568	    -15.49489763	      4.93291171	     -7.02670523	     13.77014390	    -12.30272770	      4.18254315	     -4.97712581
      0.54133333	     -0.07368680	      4.29935413	     -6.10231672	     -0.65676129	      0.99681716	      0.29623021	     21.03660064	     -0.85599955	      6.45112272	    -10.04159992	     -0.05858888	     -3.75575423	      8.97691251	    -13.88169056	      9.57707638	      0.95192787	    -16.89142588	      4.63017744	     -6.70483579	     13.98011384	    -12.29258249	      4.32450073	     -4.87228739
      0.54550000	     -0.07339766	      4.16647331	     -6.07140736	     -0.65082517	      0.99665117	      0.29661171	     21.02817585	     -0.66868308	      6.52732491	    -10.79776174	     -0.21040715	     -4.03448603	      8.99495835	    -13.47645357	      9.38268561	      0.56617402	    -18.34966509	      4.30613930	     -6.31328598	     14.39318958	    -12.31216640	      4.47165976	     -4.76570706
      0.54966667	     -0.04805925	      4.00411484	     -6.05023305	     -0.64485435	      0.99654848	      0.29705055	     20.94639540	     -0.44526800	      6.68229312	    -11.47608883	     -0.32188884	     -4.47202412	      9.12882291	    -13.07288347	      9.14324236	      0.10463125	    -19.83271634	      3.77028430	     -6.05418188	     19.21824934	    -12.33981386	      4.65258209	     -4.65447462
      0.55383333	     -0.03632075	      3.89406281	     -6.01445150	     -0.63891599	      0.99641496	      0.29739619	     20.94640450	     -0.29345600	      6.69069375	    -12.28914350	     -0.23553900	     -4.55629452	      9.13176049	    -12.61802403	      8.95852963	     -0.29355877	    -21.36343802	      3.20681863	     -5.79339362	     19.31038127	    -12.35175123	      4.77368602	     -4.56733736
      0.55800000	     -0.03656042	      3.76977001	     -5.96292511	     -0.63300109	      0.99626809	      0.29776678	     20.94483772	     -0.12415217	      6.71469019	    -13.08138902	     -0.15649753	     -4.78562424	      9.12656064	    -12.10409773	      8.73250492	     -0.73607504	    -22.97450187	      2.63736836	     -5.45083213	     19.49685572	    -12.35500296	      4.91192658	     -4.45834571
      0.56216667	      0.06124264	      3.53204885	     -5.91210538	     -0.62705561	      0.99630414	      0.29821449	     20.76356395	      0.15759036	      6.76935331	    -13.75275698	     -0.15382939	     -5.18394387	      9.00989479	    -11.67415404	      8.35665985	     -1.30537492	    -24.63751242	      2.07359659	     -4.93906821	     21.43652560	    -12.50269928	      5.18390442	     -4.34648591
      0.56633333	     -0.01112346	      3.46607661	     -5.84165585	     -0.62119963	      0.99605467	      0.29855372	     20.87901478	      0.26891314	      6.75576686	    -14.62789806	      0.14153429	     -5.31679234	      9.00126959	    -11.02310875	      8.17116314	     -1.67070841	    -26.29609147	      1.21237750	     -4.80993560	     21.63715474	    -12.40647660	      5.22712936	     -4.23583265
      0.57050000	     -0.00035423	      3.32261149	     -5.76317514	     -0.61533811	      0.99594991	      0.29892415	     20.85990531	      0.44731756	      6.71906538	    -15.43206800	      0.42434356	     -5.48003579	      8.97953080	    -10.43380158	      7.87419426	     -2.13833084	    -28.00971452	      0.38764936	     -4.50353529	     21.93021457	    -12.42822829	      5.37170963	     -4.12647162
      0.57466667	      0.02509136	      3.15057880	     -5.67277432	     -0.60949402	      0.99587753	      0.29931803	     20.79818483	      0.65676022	      6.70363368	    -16.19210584	      0.70410638	     -5.77620331	      8.29798530	     -9.84369823	      7.52535727	     -2.60560341	    -29.72612683	     -0.61193018	     -4.27197392	     27.72331601	    -12.48526713	      5.56041986	     -3.99706350
      0.57883333	      0.04875858	      2.98930336	     -5.58665719	     -0.60366514	      0.99580074	      0.29970250	     20.74672146	      0.84880948	      6.65034867	    -16.96708601	      1.09434081	     -5.87984802	      8.29029508	     -9.22991997	      7.18086569	     -3.06635205	    -31.46843785	     -1.62162869	     -4.02452351	     27.77368751	    -12.52759013	      5.71231274	     -3.89170213
      0.58300000	      0.04528873	      2.83223605	     -5.48179672	     -0.59788877	      0.99569080	      0.30006926	     20.72246576	      1.03476246	      6.58054033	    -17.73705957	      1.50422408	     -6.04038648	      8.26359047	     -8.55984595	      6.82194247	     -3.50225760	    -33.23736223	     -2.67354719	     -3.77040561	     27.88894569	    -12.54602507	      5.88058633	     -3.76483645
      0.58716667	      0.06919538	      2.65716651	     -5.37822215	     -0.59211762	      0.99563387	      0.30047181	     20.63905164	      1.23827345	      6.52484843	    -18.45038495	      1.96037430	     -6.17933019	      8.23177580	     -7.91018807	      6.42812397	     -3.95110112	    -34.99509319	     -3.83297225	     -3.57095759	     28.01027142	    -12.58864616	      6.03242898	     -3.64918921
      0.59133333	      0.07309670	      2.47982231	     -5.25702892	     -0.58640191	      0.99555232	      0.30083498	     20.58043616	      1.43817936	      6.43936901	    -19.16948178	      2.42529798	     -6.32535343	      8.16063252	     -7.22250363	      6.02298444	     -4.34437836	    -36.76276129	     -5.00859194	     -3.35069641	     28.22049524	    -12.63164527	      6.22114404	     -3.49946772
      0.59550000	      0.07698107	      2.29769587	     -5.13896542	     -0.58070546	      0.99546026	      0.30123266	     20.50417937	      1.64462803	      6.35787031	    -19.84927897	      2.92653893	     -6.43670564	      8.07238813	     -6.52253159	      5.59526457	     -4.75176562	    -38.52174577	     -6.27233329	     -3.18988920	     28.43217696	    -12.66610441	      6.39013316	     -3.36427528
      0.59966667	      0.10558411	      2.10366522	     -5.01904122	     -0.57501971	      0.99543263	      0.30163903	     20.37405886	      1.85732176	      6.26542877	    -20.47339459	      3.44370296	     -6.52744992	      7.99914466	     -5.85156871	      5.14521457	     -5.14915573	    -40.24903156	     -7.57617386	     -3.06299951	     28.56893291	    -12.71629719	      6.55163063	     -3.23910759
